<svg class="svg-icon" style="width: 1em; height: 1em;vertical-align: middle;fill: currentColor;overflow: hidden;" viewBox="0 0 1024 1024" version="1.1" xmlns="http://www.w3.org/2000/svg"><path d="M511.97742 121.367144c-215.389989 0-390.610276 175.242867-390.610276 390.632856s175.242867 390.610276 390.610276 390.610276c215.389989 0 390.655436-175.220287 390.655436-390.610276s-175.265447-390.632856-390.655436-390.632856z m0 699.97795c-170.56882 0-309.345094-138.753693-309.345094-309.345094s138.776273-309.367674 309.345094-309.367674c170.5914 0 309.367674 138.776273 309.367674 309.367674s-138.776273 309.345094-309.367674 309.345094z" fill="#231815" /><path d="M511.97742 512m-192.877795 0a192.877795 192.877795 0 1 0 385.75559 0 192.877795 192.877795 0 1 0-385.75559 0Z" fill="#231815" /></svg>